<!DOCTYPE svg PUBLIC "-//W3C//DTD SVG 20010904//EN" "http://www.w3.org/TR/2001/REC-SVG-20010904/DTD/svg10.dtd">
<svg version="1.0" xmlns="http://www.w3.org/2000/svg" width="190px" height="114px" viewBox="0 0 1900 1140" preserveAspectRatio="xMidYMid meet">
<g id="layer101" fill="#233059" stroke="none">
<path d="M361 973 c0 -5 13 -28 28 -53 l27 -45 268 -3 268 -2 -31 52 -30 53 -265 3 c-147 1 -266 -1 -265 -5z"/>
<path d="M450 824 c0 -4 14 -31 31 -60 l30 -54 336 0 c184 0 333 3 331 8 -1 4 -16 31 -33 60 l-30 52 -332 0 c-183 0 -333 -3 -333 -6z"/>
</g>
<g id="layer102" fill="#b81e28" stroke="none">
<path d="M518 418 c-81 -138 -145 -255 -142 -260 8 -13 110 -9 122 4 13 17 292 496 292 503 0 3 -28 5 -63 5 l-63 0 -146 -252z"/>
<path d="M730 473 c-63 -109 -123 -213 -133 -231 l-20 -33 68 3 67 3 125 215 c69 118 127 221 130 228 4 9 -12 12 -59 12 l-63 0 -115 -197z"/>
</g>
<g id="layer103" fill="#e8e8e8" stroke="none">
<path d="M0 977 c0 -9 391 -672 398 -675 4 -1 21 22 36 51 l29 53 -165 284 -165 285 -67 3 c-36 2 -66 1 -66 -1z"/>
<path d="M206 932 c16 -27 85 -146 154 -265 69 -118 128 -213 132 -211 8 5 58 94 58 104 0 4 -54 99 -119 211 l-119 204 -67 3 -67 3 28 -49z"/>
<path d="M1243 718 c-23 -11 -30 -32 -15 -42 5 -3 25 -3 45 1 31 5 37 10 37 29 0 27 -27 31 -67 12z"/>
<path d="M1320 710 c0 -11 9 -29 20 -40 11 -11 20 -27 20 -35 0 -8 -9 -20 -20 -27 -26 -17 -29 -70 -2 -61 9 3 29 17 45 31 45 42 34 107 -23 137 -37 19 -40 19 -40 -5z"/>
<path d="M1483 720 c-14 -6 -23 -18 -23 -31 0 -19 4 -21 31 -15 17 3 35 6 40 6 5 0 9 11 9 25 0 27 -17 31 -57 15z"/>
<path d="M1560 706 c0 -13 7 -26 15 -30 8 -3 15 -16 15 -29 0 -14 -7 -30 -15 -37 -8 -7 -15 -26 -15 -41 0 -29 0 -29 28 -15 41 21 56 43 56 83 0 27 -7 42 -32 64 -39 35 -52 36 -52 5z"/>
<path d="M1700 565 l0 -166 28 3 27 3 0 160 0 160 -27 3 -28 3 0 -166z"/>
<path d="M1770 705 c0 -24 2 -25 65 -25 63 0 65 1 65 25 0 24 -2 25 -65 25 -63 0 -65 -1 -65 -25z"/>
<path d="M1269 565 c-69 -37 -57 -136 19 -159 19 -6 22 -4 22 17 0 14 -7 30 -15 37 -8 7 -15 20 -15 30 0 10 7 23 15 30 15 13 21 60 8 60 -5 -1 -20 -7 -34 -15z"/>
<path d="M1489 551 c-20 -20 -29 -39 -29 -61 0 -31 45 -90 69 -90 16 0 13 37 -5 65 -15 23 -15 27 0 50 18 28 21 65 5 65 -6 0 -24 -13 -40 -29z"/>
<path d="M1770 560 c0 -19 5 -21 57 -18 46 2 59 7 61 21 3 15 -5 17 -57 17 -55 0 -61 -2 -61 -20z"/>
<path d="M1348 452 c-22 -3 -28 -9 -28 -28 0 -18 5 -24 23 -24 35 0 52 15 41 37 -6 12 -18 17 -36 15z"/>
<path d="M1583 452 c-17 -2 -23 -10 -23 -28 0 -13 6 -24 13 -24 22 0 57 12 57 19 0 18 -27 37 -47 33z"/>
<path d="M1772 428 c3 -21 9 -23 66 -26 61 -3 62 -2 62 23 0 24 -2 25 -66 25 -62 0 -65 -1 -62 -22z"/>
</g>


</svg>