<!DOCTYPE svg PUBLIC "-//W3C//DTD SVG 20010904//EN" "http://www.w3.org/TR/2001/REC-SVG-20010904/DTD/svg10.dtd">
<svg version="1.0" xmlns="http://www.w3.org/2000/svg" width="190px" height="150px" viewBox="0 0 1200 1140"
     preserveAspectRatio="xMidYMid meet">
    <g id="layer101" fill="#233059" stroke="none">
        <path d="M361 973 c0 -5 13 -28 28 -53 l27 -45 268 -3 268 -2 -31 52 -30 53 -265 3 c-147 1 -266 -1 -265 -5z"/>
        <path d="M450 824 c0 -4 14 -31 31 -60 l30 -54 336 0 c184 0 333 3 331 8 -1 4 -16 31 -33 60 l-30 52 -332 0 c-183 0 -333 -3 -333 -6z"/>
    </g>
    <g id="layer102" fill="#b81e28" stroke="none">
        <path d="M518 418 c-81 -138 -145 -255 -142 -260 8 -13 110 -9 122 4 13 17 292 496 292 503 0 3 -28 5 -63 5 l-63 0 -146 -252z"/>
        <path d="M730 473 c-63 -109 -123 -213 -133 -231 l-20 -33 68 3 67 3 125 215 c69 118 127 221 130 228 4 9 -12 12 -59 12 l-63 0 -115 -197z"/>
    </g>
    <g id="layer103" fill="#e8e8e8" stroke="none">
        <path d="M0 977 c0 -9 391 -672 398 -675 4 -1 21 22 36 51 l29 53 -165 284 -165 285 -67 3 c-36 2 -66 1 -66 -1z"/>
        <path d="M206 932 c16 -27 85 -146 154 -265 69 -118 128 -213 132 -211 8 5 58 94 58 104 0 4 -54 99 -119 211 l-119 204 -67 3 -67 3 28 -49z"/>
    </g>
</svg>